{"title":"Parankimala (2014) Malayalam WEBRip XviD MP3 [TeamTelly]-N3kr4","uid":10273869,"size":630793472,"categoryP":"video","categoryS":"hd___movies","magnet":"?xt=urn:btih:5220c6ea561a36c1d9d2e68d889b9e77314e4cb1&amp;dn=Parankimala+%282014%29+Malayalam+WEBRip+XviD+MP3+%5BTeamTelly%5D-N3kr4&amp;tr=udp%3A%2F%2Ftracker.openbittorrent.com%3A80&amp;tr=udp%3A%2F%2Fopen.demonii.com%3A1337&amp;tr=udp%3A%2F%2Ftracker.coppersurfer.tk%3A6969&amp;tr=udp%3A%2F%2Fexodus.desync.com%3A6969","seeders":3,"leechers":1,"uploader":"Falcon.G13","files":1,"time":1401627920,"description":" &lt;a href=&quot;http://i.imgur.com/vD3HuSt.jpg&quot; rel=&quot;nofollow&quot; target=&quot;_NEW&quot;&gt;http://i.imgur.com/vD3HuSt.jpg&lt;/a&gt;\n &lt;a href=&quot;\nhttp://www.imdb.com/title/tt3652872/&quot; rel=&quot;nofollow&quot; target=&quot;_NEW&quot;&gt;\nhttp://www.imdb.com/title/tt3652872/&lt;/a&gt;\n &lt;a href=&quot;\nhttp://i.imgur.com/lIfKlYj.jpg&quot; rel=&quot;nofollow&quot; target=&quot;_NEW&quot;&gt;\nhttp://i.imgur.com/lIfKlYj.jpg&lt;/a&gt; &lt;a href=&quot;\nhttp://i.imgur.com/MaGpOSh.jpg&quot; rel=&quot;nofollow&quot; target=&quot;_NEW&quot;&gt;\nhttp://i.imgur.com/MaGpOSh.jpg&lt;/a&gt; &lt;a href=&quot;\nhttp://i.imgur.com/Im4izXd.jpg&quot; rel=&quot;nofollow&quot; target=&quot;_NEW&quot;&gt;\nhttp://i.imgur.com/Im4izXd.jpg&lt;/a&gt; &lt;a href=&quot;\nhttp://i.imgur.com/6xakUMo.jpg&quot; rel=&quot;nofollow&quot; target=&quot;_NEW&quot;&gt;\nhttp://i.imgur.com/6xakUMo.jpg&lt;/a&gt; &lt;a href=&quot;\nhttp://i.imgur.com/uzyyn22.jpg&quot; rel=&quot;nofollow&quot; target=&quot;_NEW&quot;&gt;\nhttp://i.imgur.com/uzyyn22.jpg&lt;/a&gt; &lt;a href=&quot;\nhttp://i.imgur.com/bLx9zuI.jpg&quot; rel=&quot;nofollow&quot; target=&quot;_NEW&quot;&gt;\nhttp://i.imgur.com/bLx9zuI.jpg&lt;/a&gt; &lt;a href=&quot;\nhttp://i.imgur.com/ipp9Rs1.jpg&quot; rel=&quot;nofollow&quot; target=&quot;_NEW&quot;&gt;\nhttp://i.imgur.com/ipp9Rs1.jpg&lt;/a&gt;\n\nGeneral\nComplete name :Parankimala (2014) Malayalam WEBRip XviD MP3 [TeamTelly]-N3kr4.avi\nFormat : AVI\nFormat/Info : Audio Video Interleave\nFile size : 602 MiB\nDuration : 2h 0mn\nOverall bit rate : 698 Kbps\n\nVideo\nID : 0\nFormat : MPEG-4 Visual\nFormat profile : Advanced Simple@L5\nFormat settings, BVOP : Yes\nFormat settings, QPel : No\nFormat settings, GMC : No warppoints\nFormat settings, Matrix : Default (H.263)\nCodec ID : XVID\nCodec ID/Hint : XviD\nDuration : 2h 0mn\nBit rate : 628 Kbps\nWidth : 672 pixels\nHeight : 288 pixels\nDisplay aspect ratio : 2.35:1\nFrame rate : 24.000 fps\nColor space : YUV\nChroma subsampling : 4:2:0\nBit depth : 8 bits\nScan type : Progressive\nCompression mode : Lossy\nBits/(Pixel*Frame) : 0.135\nStream size : 541 MiB (90%)\nWriting library : XviD 1.2.1 (UTC 2008-12-04)\n\nAudio\nID : 1\nFormat : MPEG Audio\nFormat version : Version 2\nFormat profile : Layer 3\nMode : Joint stereo\nMode extension : MS Stereo\nCodec ID : 55\nCodec ID/Hint : MP3\nDuration : 2h 0mn\nBit rate mode : Constant\nBit rate : 64.0 Kbps\nChannel(s) : 2 channels\nSampling rate : 24.0 KHz\nCompression mode : Lossy\nStream size : 55.1 MiB (9%)\nAlignment : Aligned on interleaves\nInterleave, duration : 167 ms (4.00 video frames)\nInterleave, preload duration : 216 ms\nTitle : Parankimala - [0]\nWriting library : LAME3.99r\nEncoding settings : -m j -V 4 -q 2 -lowpass 11 -b 64","torrent":{"xt":"urn:btih:5220c6ea561a36c1d9d2e68d889b9e77314e4cb1","amp;dn":"Parankimala+%282014%29+Malayalam+WEBRip+XviD+MP3+%5BTeamTelly%5D-N3kr4","amp;tr":["udp%3A%2F%2Ftracker.openbittorrent.com%3A80","udp%3A%2F%2Fopen.demonii.com%3A1337","udp%3A%2F%2Ftracker.coppersurfer.tk%3A6969","udp%3A%2F%2Fexodus.desync.com%3A6969"],"infoHash":"5220c6ea561a36c1d9d2e68d889b9e77314e4cb1","infoHashBuffer":{"type":"Buffer","data":[82,32,198,234,86,26,54,193,217,210,230,141,136,155,158,119,49,78,76,177]},"announce":[],"urlList":[]}}